# xmcd
#
# Track frame offsets:
#	150
#	18785
#	30589
#	51303
#	67760
#	86197
#	101961
#	121982
#	137053
#	152223
#	163928
#	179098
#	192189
#	209141
#	220747
#	236511
#	248117
#
# Disc length: 4108 seconds
#
# Revision: 0
# Processed by: cddbd v1.5.2PL0 Copyright (c) Steve Scherf et al.
# Submitted via: EasyCDDAExtractor 16.0.6.1
#
DISCID=f9100a11
DTITLE=Συλλογικός δίσκος - Για τον Γρηγόρη-Συν. στ. Ειρ. κ Φιλίας 2
DYEAR=2002
DGENRE=Ποικίλη
TTITLE0=Νταλάρας Γιώργος - Μάννα μου και Παναγιά
TTITLE1=Νταλάρας Γιώργος - Τα ματόκλαδά σου λάμπουν
TTITLE2=Πάνου Πόλυ - Στον Πειραιά συννέφιασε
TTITLE3=Πάνου Πόλυ - Μέσ' στην πολλή σκοτούρα μου
TTITLE4=Παπακωνσταντίνου Βασίλης - Μίλησέ μου
TTITLE5=Παπακωνσταντίνου Βασίλης - Ένα το χελιδόνι
TTITLE6=Πάριος Γιάννης - Επίσημη αγαπημένη
TTITLE7=Πάριος Γιάννης - Γωνιά-γωνιά
TTITLE8=Ρέμος Αντώνης - Μάτια βουρκωμένα
TTITLE9=Ρέμος Αντώνης - Τρελλοκόριτσο
TTITLE10=Σουλτάτου Μαρία - Η μπαλάντα του Αντρίκου
TTITLE11=Χρονά Ντίνα - Πού 'ναι τα χρόνια
TTITLE12=Τερζής Πασχάλης - Είμαι αητός χωρίς φτερά
TTITLE13=Τερζής Πασχάλης - Εγνατίας 406
TTITLE14=Τσαλιγοπούλου Ελένη - Ο μπαγλαμάς
TTITLE15=Τσαλιγοπούλου Ελένη - Μπαξέ τσιφλίκι
TTITLE16=Κότσιρας-Μπάσης-Μακεδόνας-Ρέμος κά/Μπιθικώτσης Γρ. - Άπονη ζωή-Φτωχολ
TTITLE16=ογιά/Του Βοτανικού-Της δικαιοσύνης
EXTD=
EXTT0=
EXTT1=
EXTT2=
EXTT3=
EXTT4=
EXTT5=
EXTT6=
EXTT7=
EXTT8=
EXTT9=
EXTT10=
EXTT11=
EXTT12=
EXTT13=
EXTT14=
EXTT15=
EXTT16=
PLAYORDER=
